<svg viewBox="0 0 1200 900" xmlns="http://www.w3.org/2000/svg">
  <defs>
    <style>
      .title { font: bold 24px sans-serif; fill: #1a1a1a; }
      .label { font: 14px sans-serif; fill: #333; }
      .small-label { font: 12px sans-serif; fill: #666; }
      .box { fill: #f8f9fa; stroke: #2c3e50; stroke-width: 2; }
      .highlight { fill: #e3f2fd; stroke: #1976d2; stroke-width: 2; }
      .core { fill: #fff3e0; stroke: #f57c00; stroke-width: 2; }
      .ai { fill: #f3e5f5; stroke: #7b1fa2; stroke-width: 2; }
      .output { fill: #e8f5e9; stroke: #388e3c; stroke-width: 2; }
      .arrow { fill: none; stroke: #555; stroke-width: 2; marker-end: url(#arrowhead); }
      .data-arrow { fill: none; stroke: #1976d2; stroke-width: 2; marker-end: url(#arrowhead-blue); stroke-dasharray: 5,5; }
    </style>
    <marker id="arrowhead" markerWidth="10" markerHeight="10" refX="9" refY="3" orient="auto">
      <polygon points="0 0, 10 3, 0 6" fill="#555" />
    </marker>
    <marker id="arrowhead-blue" markerWidth="10" markerHeight="10" refX="9" refY="3" orient="auto">
      <polygon points="0 0, 10 3, 0 6" fill="#1976d2" />
    </marker>
  </defs>
  
  <!-- Title -->
  <text x="600" y="35" text-anchor="middle" class="title">SRE On-Call AI Agent Architecture</text>
  
  <!-- Input Sources Layer -->
  <g id="input-layer">
    <text x="100" y="90" class="small-label" font-weight="bold">INPUT SOURCES</text>
    
    <!-- Monitoring Systems -->
    <rect x="50" y="110" width="180" height="80" rx="5" class="box"/>
    <text x="140" y="140" text-anchor="middle" class="label" font-weight="bold">Monitoring Systems</text>
    <text x="140" y="160" text-anchor="middle" class="small-label">PagerDuty</text>
    <text x="140" y="175" text-anchor="middle" class="small-label">Grafana / Prometheus</text>
    
    <!-- Slack -->
    <rect x="270" y="110" width="180" height="80" rx="5" class="box"/>
    <text x="360" y="140" text-anchor="middle" class="label" font-weight="bold">Slack</text>
    <text x="360" y="160" text-anchor="middle" class="small-label">Thread Mentions</text>
    <text x="360" y="175" text-anchor="middle" class="small-label">@bot trigger</text>
  </g>
  
  <!-- Webhook Label -->
  <text x="140" y="210" text-anchor="middle" class="small-label" fill="#1976d2">Webhook</text>
  <text x="360" y="210" text-anchor="middle" class="small-label" fill="#1976d2">Event API</text>
  
  <!-- Arrows from inputs -->
  <path d="M 140 190 L 140 245" class="arrow"/>
  <path d="M 360 190 L 360 245" class="arrow"/>
  
  <!-- n8n Orchestration Layer -->
  <g id="orchestration">
    <text x="100" y="240" class="small-label" font-weight="bold">ORCHESTRATION</text>
    
    <rect x="50" y="250" width="400" height="160" rx="5" class="core"/>
    <text x="250" y="280" text-anchor="middle" class="label" font-weight="bold" font-size="16">n8n Workflow Engine</text>
    
    <!-- Internal components -->
    <rect x="70" y="295" width="110" height="50" rx="3" class="highlight" opacity="0.7"/>
    <text x="125" y="315" text-anchor="middle" class="small-label" font-weight="bold">Webhook</text>
    <text x="125" y="330" text-anchor="middle" class="small-label">Receiver</text>
    
    <rect x="195" y="295" width="110" height="50" rx="3" class="highlight" opacity="0.7"/>
    <text x="250" y="315" text-anchor="middle" class="small-label" font-weight="bold">Event</text>
    <text x="250" y="330" text-anchor="middle" class="small-label">Router</text>
    
    <rect x="320" y="295" width="110" height="50" rx="3" class="highlight" opacity="0.7"/>
    <text x="375" y="315" text-anchor="middle" class="small-label" font-weight="bold">Context</text>
    <text x="375" y="330" text-anchor="middle" class="small-label">Manager</text>
    
    <rect x="70" y="355" width="110" height="45" rx="3" class="highlight" opacity="0.7"/>
    <text x="125" y="375" text-anchor="middle" class="small-label" font-weight="bold">Scheduler</text>
    <text x="125" y="388" text-anchor="middle" class="small-label">(Periodic)</text>
    
    <rect x="195" y="355" width="110" height="45" rx="3" class="highlight" opacity="0.7"/>
    <text x="250" y="375" text-anchor="middle" class="small-label" font-weight="bold">State</text>
    <text x="250" y="388" text-anchor="middle" class="small-label">Management</text>
    
    <rect x="320" y="355" width="110" height="45" rx="3" class="highlight" opacity="0.7"/>
    <text x="375" y="375" text-anchor="middle" class="small-label" font-weight="bold">Approval</text>
    <text x="375" y="388" text-anchor="middle" class="small-label">Workflow</text>
  </g>
  
  <!-- Arrow to AI -->
  <path d="M 250 410 L 250 455" class="arrow"/>
  <text x="280" y="440" class="small-label" fill="#7b1fa2">API Calls</text>
  
  <!-- Vexa AI Processing Layer -->
  <g id="ai-layer">
    <text x="100" y="450" class="small-label" font-weight="bold">AI PROCESSING</text>
    
    <rect x="50" y="460" width="400" height="180" rx="5" class="ai"/>
    <text x="250" y="490" text-anchor="middle" class="label" font-weight="bold" font-size="16">Vexa AI Engine</text>
    
    <!-- AI Components -->
    <rect x="70" y="505" width="170" height="60" rx="3" class="highlight" opacity="0.6"/>
    <text x="155" y="525" text-anchor="middle" class="small-label" font-weight="bold">Incident Analysis</text>
    <text x="155" y="540" text-anchor="middle" class="small-label">• Context extraction</text>
    <text x="155" y="555" text-anchor="middle" class="small-label">• Severity assessment</text>
    
    <rect x="260" y="505" width="170" height="60" rx="3" class="highlight" opacity="0.6"/>
    <text x="345" y="525" text-anchor="middle" class="small-label" font-weight="bold">Summary Generation</text>
    <text x="345" y="540" text-anchor="middle" class="small-label">• Progress tracking</text>
    <text x="345" y="555" text-anchor="middle" class="small-label">• Key decisions</text>
    
    <rect x="70" y="575" width="170" height="55" rx="3" class="highlight" opacity="0.6"/>
    <text x="155" y="595" text-anchor="middle" class="small-label" font-weight="bold">Action Item Extraction</text>
    <text x="155" y="610" text-anchor="middle" class="small-label">• Task identification</text>
    <text x="155" y="623" text-anchor="middle" class="small-label">• Owner assignment</text>
    
    <rect x="260" y="575" width="170" height="55" rx="3" class="highlight" opacity="0.6"/>
    <text x="345" y="595" text-anchor="middle" class="small-label" font-weight="bold">Status Updates</text>
    <text x="345" y="610" text-anchor="middle" class="small-label">• Incident timeline</text>
    <text x="345" y="623" text-anchor="middle" class="small-label">• Resolution tracking</text>
  </g>
  
  <!-- Arrow to Review -->
  <path d="M 250 640 L 250 685" class="arrow"/>
  
  <!-- Review and Output Layer -->
  <g id="output-layer">
    <text x="100" y="680" class="small-label" font-weight="bold">REVIEW & OUTPUT</text>
    
    <!-- Admin Review -->
    <rect x="50" y="690" width="180" height="100" rx="5" class="output"/>
    <text x="140" y="715" text-anchor="middle" class="label" font-weight="bold">Admin Review</text>
    <text x="140" y="735" text-anchor="middle" class="small-label">SRE/Admin Channel</text>
    <text x="140" y="755" text-anchor="middle" class="small-label">✓ Approve</text>
    <text x="140" y="770" text-anchor="middle" class="small-label">✗ Reject / Edit</text>
    
    <!-- Publication -->
    <rect x="270" y="690" width="180" height="100" rx="5" class="output"/>
    <text x="360" y="715" text-anchor="middle" class="label" font-weight="bold">Publication</text>
    <text x="360" y="735" text-anchor="middle" class="small-label">Stakeholder Channels</text>
    <text x="360" y="755" text-anchor="middle" class="small-label">Status updates</text>
    <text x="360" y="770" text-anchor="middle" class="small-label">Summaries</text>
  </g>
  
  <!-- Feedback Loop -->
  <path d="M 140 790 L 140 820 L 450 820 L 450 150" class="data-arrow"/>
  <text x="450" y="490" class="small-label" fill="#1976d2" transform="rotate(-90 480 490)">Continuous Monitoring</text>
  
  <!-- Side Components -->
  <g id="side-components">
    <text x="550" y="90" class="small-label" font-weight="bold">INTEGRATIONS</text>
    
    <!-- Jira Integration -->
    <rect x="520" y="110" width="150" height="60" rx="5" class="box" opacity="0.8"/>
    <text x="595" y="135" text-anchor="middle" class="small-label" font-weight="bold">Jira Integration</text>
    <text x="595" y="150" text-anchor="middle" class="small-label">Ticket creation</text>
    <text x="595" y="163" text-anchor="middle" class="small-label">(Optional)</text>
    
    <!-- Database -->
    <rect x="520" y="190" width="150" height="60" rx="5" class="box" opacity="0.8"/>
    <text x="595" y="215" text-anchor="middle" class="small-label" font-weight="bold">Database</text>
    <text x="595" y="230" text-anchor="middle" class="small-label">Incident history</text>
    <text x="595" y="243" text-anchor="middle" class="small-label">(Optional)</text>
    
    <!-- StatusPage -->
    <rect x="520" y="270" width="150" height="60" rx="5" class="box" opacity="0.8"/>
    <text x="595" y="295" text-anchor="middle" class="small-label" font-weight="bold">StatusPage</text>
    <text x="595" y="310" text-anchor="middle" class="small-label">Public updates</text>
    <text x="595" y="323" text-anchor="middle" class="small-label">(Optional)</text>
  </g>
  
  <!-- Data flow arrows to integrations -->
  <path d="M 450 320 L 520 140" class="data-arrow"/>
  <path d="M 450 320 L 520 220" class="data-arrow"/>
  <path d="M 450 320 L 520 300" class="data-arrow"/>
  
  <!-- Legend -->
  <g id="legend" transform="translate(720, 110)">
    <text x="0" y="0" class="small-label" font-weight="bold">LEGEND</text>
    
    <rect x="0" y="10" width="40" height="25" rx="3" class="box"/>
    <text x="50" y="27" class="small-label">Input Sources</text>
    
    <rect x="0" y="45" width="40" height="25" rx="3" class="core"/>
    <text x="50" y="62" class="small-label">Orchestration</text>
    
    <rect x="0" y="80" width="40" height="25" rx="3" class="ai"/>
    <text x="50" y="97" class="small-label">AI Processing</text>
    
    <rect x="0" y="115" width="40" height="25" rx="3" class="output"/>
    <text x="50" y="132" class="small-label">Output</text>
    
    <line x1="0" y1="160" x2="40" y2="160" class="arrow"/>
    <text x="50" y="165" class="small-label">Control Flow</text>
    
    <line x1="0" y1="185" x2="40" y2="185" class="data-arrow"/>
    <text x="50" y="190" class="small-label">Data Flow</text>
  </g>
  
  <!-- Workflow Steps -->
  <g id="workflow-steps" transform="translate(720, 340)">
    <text x="0" y="0" class="small-label" font-weight="bold">WORKFLOW STEPS</text>
    
    <text x="0" y="25" class="small-label">1. Alert/Mention received</text>
    <text x="0" y="45" class="small-label">2. n8n routes to handler</text>
    <text x="0" y="65" class="small-label">3. Context gathered</text>
    <text x="0" y="85" class="small-label">4. Vexa AI analyzes</text>
    <text x="0" y="105" class="small-label">5. Summary generated</text>
    <text x="0" y="125" class="small-label">6. Admin reviews</text>
    <text x="0" y="145" class="small-label">7. Approved → Publish</text>
    <text x="0" y="165" class="small-label">8. Continuous monitoring</text>
  </g>
  
  <!-- Features Box -->
  <g id="features" transform="translate(720, 540)">
    <rect x="0" y="0" width="420" height="180" rx="5" class="highlight" opacity="0.3"/>
    <text x="10" y="25" class="small-label" font-weight="bold">KEY FEATURES</text>
    
    <text x="20" y="50" class="small-label">✓ Real-time incident monitoring</text>
    <text x="20" y="70" class="small-label">✓ Automated summary generation (configurable intervals)</text>
    <text x="20" y="90" class="small-label">✓ Action item extraction and tracking</text>
    <text x="20" y="110" class="small-label">✓ Admin approval workflow</text>
    <text x="20" y="130" class="small-label">✓ Multi-channel notification support</text>
    <text x="20" y="150" class="small-label">✓ Extensible integration framework</text>
    <text x="20" y="170" class="small-label">✓ Open source (Apache 2.0)</text>
  </g>
  
  <!-- Footer -->
  <text x="600" y="880" text-anchor="middle" class="small-label" fill="#999">
    Built with n8n + Vexa AI | Open Source Apache 2.0 License
  </text>
</svg>